<?xml version="1.0" encoding="utf-8"?>
<svg xmlns="http://www.w3.org/2000/svg" y="-114.386pt" x="-86.0394pt" viewBox="-86.0394 -114.386 257.118 157.906" height="157.906pt" stroke-miterlimit="10.000000" stroke-width="0.566929" fill="none" width="257.118pt" version="1.1">
 <path stroke="black" d="M0 -0L82.3786 -109.838"/>
 <g stroke-dasharray="none" stroke-linecap="butt">
  <path fill="black" d="M79.8765 -110.329L85.0394 -113.386L83.5503 -107.574L82.3786 -109.838Z"/>
 </g>
 <g transform="matrix(1.000000,0.000000,0.000000,1.000000,28.346457,-56.692913)">
  <path fill="black" d="M3.08682 -0M6.62356 -5.92777C6.48408 -5.79826 6.15531 -5.5193 6.15531 -5.33998C6.15531 -5.24035 6.25494 -5.14072 6.35457 -5.14072C6.44423 -5.14072 6.49404 -5.21046 6.54386 -5.27024C6.66341 -5.41968 6.89255 -5.69863 7.33091 -5.91781C7.40064 -5.95766 7.50027 -6.00747 7.50027 -6.12702C7.50027 -6.22665 7.43053 -6.27646 7.36079 -6.32628C7.14162 -6.47572 7.03203 -6.65504 6.95233 -6.89415C6.9324 -6.98381 6.89255 -7.11333 6.75307 -7.11333C6.6136 -7.11333 6.55382 -6.98381 6.55382 -6.90411C6.55382 -6.8543 6.63352 -6.53549 6.79292 -6.32628L3.43551 -6.32628C3.26615 -6.32628 3.08682 -6.32628 3.08682 -6.12702C3.08682 -5.92777 3.26615 -5.92777 3.43551 -5.92777ZM3.43551 -5.92777"/>
  <path fill="black" d="M0.288917 -0M4.60274 -3.37733C4.65255 -3.59651 4.75218 -3.96513 4.75218 -4.02491C4.75218 -4.20423 4.6127 -4.2939 4.46326 -4.2939C4.34371 -4.2939 4.16438 -4.2142 4.09465 -4.01494C4.06476 -3.94521 3.59651 -2.04234 3.52677 -1.78331C3.45704 -1.48443 3.43711 -1.30511 3.43711 -1.12578C3.43711 -1.01619 3.43711 -0.996264 3.44707 -0.946451C3.21793 -0.418431 2.91905 -0.109589 2.53051 -0.109589C1.7335 -0.109589 1.7335 -0.846824 1.7335 -1.01619C1.7335 -1.33499 1.78331 -1.72354 2.25156 -2.94894C2.36115 -3.24782 2.42092 -3.3873 2.42092 -3.58655C2.42092 -4.03487 2.09215 -4.40349 1.60399 -4.40349C0.657534 -4.40349 0.288917 -2.9589 0.288917 -2.86924C0.288917 -2.76961 0.388543 -2.76961 0.408468 -2.76961C0.508095 -2.76961 0.518057 -2.78954 0.56787 -2.94894C0.836862 -3.87547 1.2254 -4.18431 1.5741 -4.18431C1.66376 -4.18431 1.82316 -4.17435 1.82316 -3.85554C1.82316 -3.60648 1.71357 -3.32752 1.64384 -3.15816C1.20548 -1.98257 1.08593 -1.52428 1.08593 -1.1457C1.08593 -0.239103 1.75342 0.109589 2.50062 0.109589C2.66999 0.109589 3.13823 0.109589 3.53674 -0.587796C3.79577 0.0498132 4.48319 0.109589 4.78207 0.109589C5.52927 0.109589 5.96762 -0.518057 6.22665 -1.11582C6.56538 -1.8929 6.88418 -3.2279 6.88418 -3.7061C6.88418 -4.25405 6.61519 -4.40349 6.44583 -4.40349C6.19676 -4.40349 5.9477 -4.14446 5.9477 -3.92528C5.9477 -3.79577 6.00747 -3.73599 6.09714 -3.65629C6.20672 -3.5467 6.45579 -3.28767 6.45579 -2.80946C6.45579 -2.47073 6.16687 -1.4944 5.90785 -0.986301C5.64882 -0.458281 5.30012 -0.109589 4.81196 -0.109589C4.34371 -0.109589 4.07472 -0.408468 4.07472 -0.976339C4.07472 -1.25529 4.14446 -1.56413 4.18431 -1.70361ZM4.18431 -1.70361"/>
 </g>
 <path stroke="black" d="M0 -0L52.7265 -26.3632"/>
 <g stroke-dasharray="none" stroke-linecap="butt">
  <path fill="black" d="M50.708 -27.9211L56.6929 -28.3465L52.7617 -23.8137L52.7265 -26.3632Z"/>
 </g>
 <g transform="matrix(1.000000,0.000000,0.000000,1.000000,28.346457,-0.000000)">
  <path fill="black" d="M1.42635 -0M4.96308 -5.92777C4.82361 -5.79826 4.49484 -5.5193 4.49484 -5.33998C4.49484 -5.24035 4.59447 -5.14072 4.69409 -5.14072C4.78376 -5.14072 4.83357 -5.21046 4.88338 -5.27024C5.00293 -5.41968 5.23207 -5.69863 5.67043 -5.91781C5.74017 -5.95766 5.8398 -6.00747 5.8398 -6.12702C5.8398 -6.22665 5.77006 -6.27646 5.70032 -6.32628C5.48114 -6.47572 5.37155 -6.65504 5.29185 -6.89415C5.27192 -6.98381 5.23207 -7.11333 5.0926 -7.11333C4.95312 -7.11333 4.89334 -6.98381 4.89334 -6.90411C4.89334 -6.8543 4.97305 -6.53549 5.13245 -6.32628L1.77504 -6.32628C1.60567 -6.32628 1.42635 -6.32628 1.42635 -6.12702C1.42635 -5.92777 1.60567 -5.92777 1.77504 -5.92777ZM1.77504 -5.92777"/>
  <path fill="black" d="M0.288917 -0M4.66252 -3.7061C4.66252 -4.24408 4.40349 -4.40349 4.22416 -4.40349C3.97509 -4.40349 3.73599 -4.14446 3.73599 -3.92528C3.73599 -3.79577 3.7858 -3.73599 3.89539 -3.6264C4.10461 -3.42715 4.23412 -3.16812 4.23412 -2.80946C4.23412 -2.39103 3.6264 -0.109589 2.46077 -0.109589C1.95268 -0.109589 1.72354 -0.458281 1.72354 -0.976339C1.72354 -1.53425 1.99253 -2.26152 2.30137 -3.08842C2.37111 -3.25778 2.42092 -3.39726 2.42092 -3.58655C2.42092 -4.03487 2.10212 -4.40349 1.60399 -4.40349C0.667497 -4.40349 0.288917 -2.9589 0.288917 -2.86924C0.288917 -2.76961 0.388543 -2.76961 0.408468 -2.76961C0.508095 -2.76961 0.518057 -2.78954 0.56787 -2.94894C0.856787 -3.95517 1.28518 -4.18431 1.5741 -4.18431C1.6538 -4.18431 1.82316 -4.18431 1.82316 -3.8655C1.82316 -3.61644 1.72354 -3.34745 1.6538 -3.16812C1.21544 -2.01245 1.08593 -1.55417 1.08593 -1.12578C1.08593 -0.0498132 1.96264 0.109589 2.42092 0.109589C4.09465 0.109589 4.66252 -3.18804 4.66252 -3.7061ZM4.66252 -3.7061"/>
 </g>
 <g>
  <path stroke="#f00" d="M113.386 -56.6929L87.0226 -109.419"/>
  <g stroke-dasharray="none" stroke-linecap="butt">
   <path fill="#f00" d="M85.4647 -107.401L85.0394 -113.386L89.5721 -109.455L87.0226 -109.419Z"/>
  </g>
 </g>
 <g transform="matrix(1.000000,0.000000,0.000000,1.000000,102.047244,-87.874016)">
  <path fill="black" d="M3.08682 -0M6.62356 -5.92777C6.48408 -5.79826 6.15531 -5.5193 6.15531 -5.33998C6.15531 -5.24035 6.25494 -5.14072 6.35457 -5.14072C6.44423 -5.14072 6.49404 -5.21046 6.54386 -5.27024C6.66341 -5.41968 6.89255 -5.69863 7.33091 -5.91781C7.40064 -5.95766 7.50027 -6.00747 7.50027 -6.12702C7.50027 -6.22665 7.43053 -6.27646 7.36079 -6.32628C7.14162 -6.47572 7.03203 -6.65504 6.95233 -6.89415C6.9324 -6.98381 6.89255 -7.11333 6.75307 -7.11333C6.6136 -7.11333 6.55382 -6.98381 6.55382 -6.90411C6.55382 -6.8543 6.63352 -6.53549 6.79292 -6.32628L3.43551 -6.32628C3.26615 -6.32628 3.08682 -6.32628 3.08682 -6.12702C3.08682 -5.92777 3.26615 -5.92777 3.43551 -5.92777ZM3.43551 -5.92777"/>
  <path fill="black" d="M0.288917 -0M4.60274 -3.37733C4.65255 -3.59651 4.75218 -3.96513 4.75218 -4.02491C4.75218 -4.20423 4.6127 -4.2939 4.46326 -4.2939C4.34371 -4.2939 4.16438 -4.2142 4.09465 -4.01494C4.06476 -3.94521 3.59651 -2.04234 3.52677 -1.78331C3.45704 -1.48443 3.43711 -1.30511 3.43711 -1.12578C3.43711 -1.01619 3.43711 -0.996264 3.44707 -0.946451C3.21793 -0.418431 2.91905 -0.109589 2.53051 -0.109589C1.7335 -0.109589 1.7335 -0.846824 1.7335 -1.01619C1.7335 -1.33499 1.78331 -1.72354 2.25156 -2.94894C2.36115 -3.24782 2.42092 -3.3873 2.42092 -3.58655C2.42092 -4.03487 2.09215 -4.40349 1.60399 -4.40349C0.657534 -4.40349 0.288917 -2.9589 0.288917 -2.86924C0.288917 -2.76961 0.388543 -2.76961 0.408468 -2.76961C0.508095 -2.76961 0.518057 -2.78954 0.56787 -2.94894C0.836862 -3.87547 1.2254 -4.18431 1.5741 -4.18431C1.66376 -4.18431 1.82316 -4.17435 1.82316 -3.85554C1.82316 -3.60648 1.71357 -3.32752 1.64384 -3.15816C1.20548 -1.98257 1.08593 -1.52428 1.08593 -1.1457C1.08593 -0.239103 1.75342 0.109589 2.50062 0.109589C2.66999 0.109589 3.13823 0.109589 3.53674 -0.587796C3.79577 0.0498132 4.48319 0.109589 4.78207 0.109589C5.52927 0.109589 5.96762 -0.518057 6.22665 -1.11582C6.56538 -1.8929 6.88418 -3.2279 6.88418 -3.7061C6.88418 -4.25405 6.61519 -4.40349 6.44583 -4.40349C6.19676 -4.40349 5.9477 -4.14446 5.9477 -3.92528C5.9477 -3.79577 6.00747 -3.73599 6.09714 -3.65629C6.20672 -3.5467 6.45579 -3.28767 6.45579 -2.80946C6.45579 -2.47073 6.16687 -1.4944 5.90785 -0.986301C5.64882 -0.458281 5.30012 -0.109589 4.81196 -0.109589C4.34371 -0.109589 4.07472 -0.408468 4.07472 -0.976339C4.07472 -1.25529 4.14446 -1.56413 4.18431 -1.70361ZM4.18431 -1.70361"/>
  <path fill="black" d="M10.4413 -0M16.1797 -2.29141C16.3491 -2.29141 16.5284 -2.29141 16.5284 -2.49066C16.5284 -2.68991 16.3491 -2.68991 16.1797 -2.68991L10.79 -2.68991C10.6206 -2.68991 10.4413 -2.68991 10.4413 -2.49066C10.4413 -2.29141 10.6206 -2.29141 10.79 -2.29141ZM10.79 -2.29141"/>
  <path fill="black" d="M19.9854 -0M23.5222 -3.7858C23.3628 -3.7858 23.2233 -3.7858 23.0838 -3.64633C22.9244 -3.49689 22.9045 -3.32752 22.9045 -3.25778C22.9045 -3.01868 23.0838 -2.90909 23.2731 -2.90909C23.562 -2.90909 23.831 -3.14819 23.831 -3.5467C23.831 -4.03487 23.3628 -4.40349 22.6554 -4.40349C21.3105 -4.40349 19.9854 -2.97883 19.9854 -1.5741C19.9854 -0.67746 20.5633 0.109589 21.5994 0.109589C23.0241 0.109589 23.8609 -0.946451 23.8609 -1.066C23.8609 -1.12578 23.8011 -1.19552 23.7414 -1.19552C23.6915 -1.19552 23.6716 -1.17559 23.6118 -1.09589C22.8248 -0.109589 21.7389 -0.109589 21.6193 -0.109589C20.9917 -0.109589 20.7227 -0.597758 20.7227 -1.19552C20.7227 -1.60399 20.9219 -2.57036 21.2607 -3.18804C21.5695 -3.75592 22.1175 -4.18431 22.6654 -4.18431C23.0041 -4.18431 23.3827 -4.05479 23.5222 -3.7858ZM23.5222 -3.7858"/>
  <path fill="black" d="M25.3147 -0M28.8515 -5.92777C28.712 -5.79826 28.3832 -5.5193 28.3832 -5.33998C28.3832 -5.24035 28.4828 -5.14072 28.5825 -5.14072C28.6721 -5.14072 28.7219 -5.21046 28.7718 -5.27024C28.8913 -5.41968 29.1204 -5.69863 29.5588 -5.91781C29.6285 -5.95766 29.7282 -6.00747 29.7282 -6.12702C29.7282 -6.22665 29.6584 -6.27646 29.5887 -6.32628C29.3695 -6.47572 29.2599 -6.65504 29.1802 -6.89415C29.1603 -6.98381 29.1204 -7.11333 28.981 -7.11333C28.8415 -7.11333 28.7817 -6.98381 28.7817 -6.90411C28.7817 -6.8543 28.8614 -6.53549 29.0208 -6.32628L25.6634 -6.32628C25.494 -6.32628 25.3147 -6.32628 25.3147 -6.12702C25.3147 -5.92777 25.494 -5.92777 25.6634 -5.92777ZM25.6634 -5.92777"/>
  <path fill="black" d="M24.1773 -0M28.5509 -3.7061C28.5509 -4.24408 28.2919 -4.40349 28.1125 -4.40349C27.8635 -4.40349 27.6244 -4.14446 27.6244 -3.92528C27.6244 -3.79577 27.6742 -3.73599 27.7838 -3.6264C27.993 -3.42715 28.1225 -3.16812 28.1225 -2.80946C28.1225 -2.39103 27.5148 -0.109589 26.3491 -0.109589C25.841 -0.109589 25.6119 -0.458281 25.6119 -0.976339C25.6119 -1.53425 25.8809 -2.26152 26.1897 -3.08842C26.2595 -3.25778 26.3093 -3.39726 26.3093 -3.58655C26.3093 -4.03487 25.9905 -4.40349 25.4924 -4.40349C24.5559 -4.40349 24.1773 -2.9589 24.1773 -2.86924C24.1773 -2.76961 24.2769 -2.76961 24.2968 -2.76961C24.3965 -2.76961 24.4064 -2.78954 24.4562 -2.94894C24.7452 -3.95517 25.1736 -4.18431 25.4625 -4.18431C25.5422 -4.18431 25.7115 -4.18431 25.7115 -3.8655C25.7115 -3.61644 25.6119 -3.34745 25.5422 -3.16812C25.1038 -2.01245 24.9743 -1.55417 24.9743 -1.12578C24.9743 -0.0498132 25.851 0.109589 26.3093 0.109589C27.983 0.109589 28.5509 -3.18804 28.5509 -3.7061ZM28.5509 -3.7061"/>
 </g>
 <g stroke-dasharray="2.000000" stroke-dashoffset="0.000000" stroke-linecap="butt">
  <path stroke="#00f" d="M0 -0L109.419 -54.7097"/>
  <g stroke-dasharray="none" stroke-linecap="butt">
   <path fill="#00f" d="M107.401 -56.2676L113.386 -56.6929L109.455 -52.1602L109.419 -54.7097Z"/>
  </g>
 </g>
 <g transform="matrix(1.000000,0.000000,0.000000,1.000000,75.590551,-23.622047)">
  <path fill="black" d="M0.408468 -0M3.94521 -3.7858C3.7858 -3.7858 3.64633 -3.7858 3.50685 -3.64633C3.34745 -3.49689 3.32752 -3.32752 3.32752 -3.25778C3.32752 -3.01868 3.50685 -2.90909 3.69614 -2.90909C3.98506 -2.90909 4.25405 -3.14819 4.25405 -3.5467C4.25405 -4.03487 3.7858 -4.40349 3.07846 -4.40349C1.7335 -4.40349 0.408468 -2.97883 0.408468 -1.5741C0.408468 -0.67746 0.986301 0.109589 2.02242 0.109589C3.44707 0.109589 4.28394 -0.946451 4.28394 -1.066C4.28394 -1.12578 4.22416 -1.19552 4.16438 -1.19552C4.11457 -1.19552 4.09465 -1.17559 4.03487 -1.09589C3.24782 -0.109589 2.16189 -0.109589 2.04234 -0.109589C1.41469 -0.109589 1.1457 -0.597758 1.1457 -1.19552C1.1457 -1.60399 1.34496 -2.57036 1.68369 -3.18804C1.99253 -3.75592 2.54047 -4.18431 3.08842 -4.18431C3.42715 -4.18431 3.80573 -4.05479 3.94521 -3.7858ZM3.94521 -3.7858"/>
  <path fill="black" d="M5.73774 -0M9.27448 -5.92777C9.135 -5.79826 8.80623 -5.5193 8.80623 -5.33998C8.80623 -5.24035 8.90586 -5.14072 9.00548 -5.14072C9.09515 -5.14072 9.14496 -5.21046 9.19477 -5.27024C9.31433 -5.41968 9.54347 -5.69863 9.98182 -5.91781C10.0516 -5.95766 10.1512 -6.00747 10.1512 -6.12702C10.1512 -6.22665 10.0814 -6.27646 10.0117 -6.32628C9.79253 -6.47572 9.68294 -6.65504 9.60324 -6.89415C9.58332 -6.98381 9.54347 -7.11333 9.40399 -7.11333C9.26451 -7.11333 9.20474 -6.98381 9.20474 -6.90411C9.20474 -6.8543 9.28444 -6.53549 9.44384 -6.32628L6.08643 -6.32628C5.91707 -6.32628 5.73774 -6.32628 5.73774 -6.12702C5.73774 -5.92777 5.91707 -5.92777 6.08643 -5.92777ZM6.08643 -5.92777"/>
  <path fill="black" d="M4.60031 -0M8.97391 -3.7061C8.97391 -4.24408 8.71488 -4.40349 8.53555 -4.40349C8.28649 -4.40349 8.04738 -4.14446 8.04738 -3.92528C8.04738 -3.79577 8.0972 -3.73599 8.20678 -3.6264C8.416 -3.42715 8.54551 -3.16812 8.54551 -2.80946C8.54551 -2.39103 7.93779 -0.109589 6.77216 -0.109589C6.26407 -0.109589 6.03493 -0.458281 6.03493 -0.976339C6.03493 -1.53425 6.30392 -2.26152 6.61276 -3.08842C6.6825 -3.25778 6.73231 -3.39726 6.73231 -3.58655C6.73231 -4.03487 6.41351 -4.40349 5.91538 -4.40349C4.97889 -4.40349 4.60031 -2.9589 4.60031 -2.86924C4.60031 -2.76961 4.69994 -2.76961 4.71986 -2.76961C4.81949 -2.76961 4.82945 -2.78954 4.87926 -2.94894C5.16818 -3.95517 5.59657 -4.18431 5.88549 -4.18431C5.96519 -4.18431 6.13456 -4.18431 6.13456 -3.8655C6.13456 -3.61644 6.03493 -3.34745 5.96519 -3.16812C5.52683 -2.01245 5.39732 -1.55417 5.39732 -1.12578C5.39732 -0.0498132 6.27403 0.109589 6.73231 0.109589C8.40604 0.109589 8.97391 -3.18804 8.97391 -3.7061ZM8.97391 -3.7061"/>
 </g>
 <g stroke-dasharray="0.000000 2.000000" stroke-dashoffset="0.000000" stroke-linecap="round">
  <path stroke="black" d="M170.079 -85.0394L-85.0394 42.5197"/>
 </g>
</svg>
